<?xml version="1.0" encoding="utf-8"?>
<!-- Generator: Adobe Illustrator 23.0.1, SVG Export Plug-In . SVG Version: 6.00 Build 0)  -->
<svg version="1.1" id="Layer_1" xmlns="http://www.w3.org/2000/svg" xmlns:xlink="http://www.w3.org/1999/xlink" x="0px" y="0px"
	 viewBox="0 0 32 32" style="enable-background:new 0 0 32 32;" xml:space="preserve">
<style type="text/css">
	.st0{stroke:#000000;stroke-miterlimit:10;}
	.st1{fill:#FFFFFF;stroke:#000000;stroke-miterlimit:10;}
	.st2{fill:#FF0000;}
	.st3{fill:#FFFFFF;}
	.st4{fill:none;stroke:#C1272D;stroke-miterlimit:10;}
</style>
<g>
	<ellipse class="st0" cx="16.1" cy="16" rx="14.99" ry="14.73"/>
	<path class="st1" d="M16.1,24.74"/>
	<polygon class="st2" points="8.25,24.21 4.63,24.21 20.04,3.71 20.04,24.74 16.84,24.74 17.3,12.58 15.19,15.3 	"/>
	<path class="st3" d="M24.72,14.98v2.44c-3.92-0.51-7.63-0.63-11.05-0.17l1.88-2.32C17.94,15.49,21.21,15.34,24.72,14.98z"/>
	<path class="st3" d="M17.12,16.65l-0.28,8.36h3.2c0-0.71,0-1.41,0-2.12c0-2.06,0-4.13,0-6.19C19.07,16.69,18.1,16.67,17.12,16.65z"
		/>
	<path class="st3" d="M22.91,20.73"/>
	<path class="st3" d="M22.74,20.95"/>
	<path class="st3" d="M22.27,21.13"/>
	<polygon class="st1" points="23.2,25.02 21.26,25.02 21.26,20.14 23.2,20.14 23.2,20.95 	"/>
	<path class="st1" d="M24.8,20.73c-0.06,0.41-0.11,0.81-0.17,1.22"/>
	<path class="st3" d="M24.69,20.95c-0.03-0.04-0.37-0.5-0.98-0.5c-0.6,0-0.94,0.45-0.97,0.5c0,0.39,0,0.78,0,1.18
		c0.06-0.07,0.36-0.41,0.88-0.45c0.63-0.05,1.04,0.41,1.08,0.45c0-0.33,0-0.66,0-1"/>
	<path class="st4" d="M31.37,15.95C31.23,24.4,24.35,31.14,16,31C7.51,30.86,0.63,24.26,0.63,15.95S7.51,0.9,16,0.9
		S31.51,7.64,31.37,15.95z"/>
</g>
</svg>
