<?xml version="1.0" encoding="utf-8"?>
<!-- Generator: Adobe Illustrator 23.0.1, SVG Export Plug-In . SVG Version: 6.00 Build 0)  -->
<svg version="1.1" id="Layer_1" xmlns="http://www.w3.org/2000/svg" xmlns:xlink="http://www.w3.org/1999/xlink" x="0px" y="0px"
	 viewBox="0 0 256 256" style="enable-background:new 0 0 256 256;" xml:space="preserve">
<style type="text/css">
	.st0{stroke:#000000;stroke-miterlimit:10;}
	.st1{fill:#FFFFFF;stroke:#000000;stroke-miterlimit:10;}
	.st2{fill:#FF0000;}
	.st3{fill:#FFFFFF;}
	.st4{fill:none;stroke:#C1272D;stroke-width:15;stroke-miterlimit:10;}
</style>
<g>
	<ellipse class="st0" cx="130.77" cy="128.86" rx="108.57" ry="116.66"/>
	<path class="st1" d="M130.77,198.13"/>
	<polygon class="st2" points="73.89,193.91 47.67,193.91 159.28,31.55 159.28,198.13 136.11,198.13 139.46,101.8 124.13,123.34 	"/>
	<path class="st3" d="M193.13,120.79v19.35c-28.35-4.01-55.26-4.98-80.01-1.36l13.6-18.37
		C144.07,124.88,167.73,123.63,193.13,120.79z"/>
	<path class="st3" d="M138.16,134.06l-2.05,66.23h23.18c0-5.58,0-11.17,0-16.75c0-16.35,0-32.7,0-49.06
		C152.24,134.33,145.2,134.19,138.16,134.06z"/>
	<path class="st3" d="M180.02,166.31"/>
	<path class="st3" d="M178.8,168.1"/>
	<path class="st3" d="M175.45,169.54"/>
	<polygon class="st1" points="180.02,200.28 168.13,200.28 168.13,161.65 180.02,161.65 180.02,168.1 	"/>
	<path class="st1" d="M193.74,166.31c-0.41,3.23-0.81,6.45-1.22,9.68"/>
	<path class="st3" d="M192.93,168.1c-0.22-0.33-2.7-3.97-7.12-3.94c-4.36,0.03-6.78,3.59-7.01,3.94c0,3.11,0,6.21,0,9.32
		c0.4-0.52,2.6-3.27,6.34-3.58c4.59-0.39,7.5,3.22,7.79,3.58c0-2.63,0-5.26,0-7.88"/>
	<path class="st4" d="M241.32,128.49c-1.04,66.92-50.86,120.25-111.31,119.16C68.54,246.54,18.69,194.3,18.69,128.49
		S68.53,9.33,130.01,9.33S242.34,62.69,241.32,128.49z"/>
</g>
</svg>
